NotoSansBuhid-Regular.ufo
<glyph name="uni1735" format="2">
  <advance width="329"/>
  <unicode hex="1735"/>
  <outline>
    <contour>
      <point x="18" y="-139" type="line"/>
      <point x="87" y="-139" type="line"/>
      <point x="292" y="750" type="line"/>
      <point x="222" y="750" type="line"/>
    </contour>
  </outline>
</glyph>
<glyph name="uni1740" format="2">
  <advance width="828"/>
  <unicode hex="1740"/>
  <outline>
    <contour>
      <point x="143" y="0" type="line"/>
      <point x="497" y="0" type="line"/>
      <point x="813" y="714" type="line"/>
      <point x="728" y="714" type="line"/>
      <point x="443" y="68" type="line"/>
      <point x="237" y="68" type="line"/>
      <point x="346" y="536" type="line"/>
      <point x="69" y="536" type="line"/>
      <point x="53" y="468" type="line"/>
      <point x="251" y="468" type="line"/>
    </contour>
  </outline>
</glyph>
<glyph name="uni1741" format="2">
  <advance width="828"/>
  <unicode hex="1741"/>
  <outline>
    <contour>
      <point x="143" y="0" type="line"/>
      <point x="497" y="0" type="line"/>
      <point x="813" y="714" type="line"/>
      <point x="728" y="714" type="line"/>
      <point x="444" y="68" type="line"/>
      <point x="238" y="68" type="line"/>
      <point x="346" y="536" type="line"/>
      <point x="69" y="536" type="line"/>
      <point x="52" y="468" type="line"/>
      <point x="252" y="468" type="line"/>
    </contour>
    <contour>
      <point x="100" y="-184" type="line"/>
      <point x="455" y="-184" type="line"/>
      <point x="471" y="-116" type="line"/>
      <point x="116" y="-116" type="line"/>
    </contour>
  </outline>
</glyph>
<glyph name="uni1742" format="2">
  <advance width="625"/>
  <unicode hex="1742"/>
  <outline>
    <contour>
      <point x="374" y="0" type="line"/>
      <point x="455" y="0" type="line"/>
      <point x="556" y="302" type="line"/>
      <point x="306" y="302" type="line"/>
      <point x="371" y="536" type="line"/>
      <point x="69" y="536" type="line"/>
      <point x="53" y="468" type="line"/>
      <point x="272" y="468" type="line"/>
      <point x="207" y="234" type="line"/>
      <point x="451" y="234" type="line"/>
    </contour>
  </outline>
</glyph>
<glyph name="uni1743" format="2">
  <advance width="619"/>
  <unicode hex="1743"/>
  <outline>
    <contour>
      <point x="55" y="0" type="line"/>
      <point x="409" y="0" type="line"/>
      <point x="425" y="68" type="line"/>
      <point x="71" y="68" type="line"/>
    </contour>
    <contour>
      <point x="163" y="468" type="line"/>
      <point x="516" y="468" type="line"/>
      <point x="532" y="536" type="line"/>
      <point x="179" y="536" type="line"/>
    </contour>
  </outline>
</glyph>
<glyph name="uni1744" format="2">
  <advance width="599"/>
  <unicode hex="1744"/>
  <outline>
    <contour>
      <point x="310" y="0" type="line"/>
      <point x="388" y="0" type="line"/>
      <point x="463" y="322" type="line"/>
      <point x="188" y="322" type="line"/>
      <point x="245" y="568" type="line"/>
      <point x="165" y="568" type="line"/>
      <point x="93" y="254" type="line"/>
      <point x="368" y="254" type="line"/>
    </contour>
  </outline>
</glyph>
<glyph name="uni1746" format="2">
  <advance width="1025"/>
  <unicode hex="1746"/>
  <outline>
    <contour>
      <point x="50" y="0" type="line"/>
      <point x="322" y="0" type="line"/>
      <point x="433" y="254" type="line"/>
      <point x="547" y="254" type="line"/>
      <point x="504" y="0" type="line"/>
      <point x="769" y="0" type="line"/>
      <point x="1003" y="536" type="line"/>
      <point x="918" y="536" type="line"/>
      <point x="715" y="68" type="line"/>
      <point x="592" y="68" type="line"/>
      <point x="635" y="322" type="line"/>
      <point x="379" y="322" type="line"/>
      <point x="268" y="68" type="line"/>
      <point x="144" y="68" type="line"/>
      <point x="253" y="536" type="line"/>
      <point x="174" y="536" type="line"/>
    </contour>
  </outline>
</glyph>
<glyph name="uni1747" format="2">
  <advance width="817"/>
  <unicode hex="1747"/>
  <outline>
    <contour>
      <point x="143" y="0" type="line"/>
      <point x="497" y="0" type="line"/>
      <point x="813" y="714" type="line"/>
      <point x="728" y="714" type="line"/>
      <point x="444" y="68" type="line"/>
      <point x="237" y="68" type="line"/>
      <point x="387" y="714" type="line"/>
      <point x="308" y="714" type="line"/>
      <point x="240" y="418" type="line"/>
      <point x="20" y="418" type="line"/>
      <point x="3" y="350" type="line"/>
      <point x="223" y="350" type="line"/>
    </contour>
  </outline>
</glyph>
<glyph name="uni1748" format="2">
  <advance width="438"/>
  <unicode hex="1748"/>
  <outline>
    <contour>
      <point x="105" y="0" type="line"/>
      <point x="183" y="0" type="line"/>
      <point x="333" y="646" type="line"/>
      <point x="480" y="646" type="line"/>
      <point x="496" y="714" type="line"/>
      <point x="103" y="714" type="line"/>
      <point x="87" y="646" type="line"/>
      <point x="254" y="646" type="line"/>
    </contour>
  </outline>
</glyph>
<glyph name="uni1749" format="2">
  <advance width="828"/>
  <unicode hex="1749"/>
  <outline>
    <contour>
      <point x="159" y="0" type="line"/>
      <point x="493" y="0" type="line"/>
      <point x="656" y="468" type="line"/>
      <point x="858" y="468" type="line"/>
      <point x="874" y="536" type="line"/>
      <point x="597" y="536" type="line"/>
      <point x="436" y="68" type="line"/>
      <point x="253" y="68" type="line"/>
      <point x="362" y="536" type="line"/>
      <point x="85" y="536" type="line"/>
      <point x="69" y="468" type="line"/>
      <point x="267" y="468" type="line"/>
    </contour>
  </outline>
</glyph>
<glyph name="uni174A" format="2">
  <advance width="619"/>
  <unicode hex="174A"/>
  <outline>
    <contour>
      <point x="55" y="0" type="line"/>
      <point x="409" y="0" type="line"/>
      <point x="540" y="568" type="line"/>
      <point x="186" y="568" type="line"/>
      <point x="170" y="500" type="line"/>
      <point x="442" y="500" type="line"/>
      <point x="343" y="68" type="line"/>
      <point x="71" y="68" type="line"/>
    </contour>
  </outline>
</glyph>
<glyph name="uni174C" format="2">
  <advance width="881"/>
  <unicode hex="174C"/>
  <outline>
    <contour>
      <point x="119" y="0" type="line"/>
      <point x="409" y="0" type="line"/>
      <point x="572" y="468" type="line"/>
      <point x="700" y="468" type="line"/>
      <point x="592" y="0" type="line"/>
      <point x="671" y="0" type="line"/>
      <point x="795" y="536" type="line"/>
      <point x="513" y="536" type="line"/>
      <point x="352" y="68" type="line"/>
      <point x="213" y="68" type="line"/>
      <point x="322" y="536" type="line"/>
      <point x="85" y="536" type="line"/>
      <point x="69" y="468" type="line"/>
      <point x="227" y="468" type="line"/>
    </contour>
  </outline>
</glyph>
<glyph name="uni174D" format="2">
  <advance width="613"/>
  <unicode hex="174D"/>
  <outline>
    <contour>
      <point x="68" y="295" type="line"/>
      <point x="539" y="295" type="line"/>
      <point x="555" y="363" type="line"/>
      <point x="84" y="363" type="line"/>
    </contour>
  </outline>
</glyph>
<glyph name="uni174F" format="2">
  <advance width="817"/>
  <unicode hex="174F"/>
  <outline>
    <contour>
      <point x="50" y="0" type="line"/>
      <point x="589" y="0" type="line"/>
      <point x="759" y="416" type="line"/>
      <point x="406" y="416" type="line"/>
      <point x="328" y="175" type="line"/>
      <point x="408" y="175" type="line"/>
      <point x="465" y="348" type="line"/>
      <point x="648" y="348" type="line"/>
      <point x="535" y="68" type="line"/>
      <point x="144" y="68" type="line"/>
      <point x="253" y="536" type="line"/>
      <point x="174" y="536" type="line"/>
    </contour>
  </outline>
</glyph>
<glyph name="uni1750" format="2">
  <advance width="758"/>
  <unicode hex="1750"/>
  <outline>
    <contour>
      <point x="523" y="-56" type="line"/>
      <point x="604" y="-56" type="line"/>
      <point x="705" y="246" type="line"/>
      <point x="466" y="246" type="line"/>
      <point x="544" y="480" type="line"/>
      <point x="303" y="480" type="line"/>
      <point x="382" y="714" type="line"/>
      <point x="89" y="714" type="line"/>
      <point x="73" y="646" type="line"/>
      <point x="277" y="646" type="line"/>
      <point x="200" y="412" type="line"/>
      <point x="440" y="412" type="line"/>
      <point x="362" y="178" type="line"/>
      <point x="600" y="178" type="line"/>
    </contour>
  </outline>
</glyph>
<glyph name="uni1751" format="2">
  <advance width="574"/>
  <unicode hex="1751"/>
  <outline>
    <contour>
      <point x="50" y="0" type="line"/>
      <point x="439" y="0" type="line"/>
      <point x="455" y="68" type="line"/>
      <point x="144" y="68" type="line"/>
      <point x="253" y="536" type="line"/>
      <point x="174" y="536" type="line"/>
    </contour>
  </outline>
</glyph>
<glyph name="uni1752" format="2">
  <unicode hex="1752"/>
  <outline>
    <contour>
      <point x="-356" y="648" type="line"/>
      <point x="-1" y="648" type="line"/>
      <point x="15" y="716" type="line"/>
      <point x="-340" y="716" type="line"/>
    </contour>
  </outline>
</glyph>
<glyph name="uni1753" format="2">
  <unicode hex="1753"/>
  <outline>
    <contour>
      <point x="-553" y="-184" type="line"/>
      <point x="-198" y="-184" type="line"/>
      <point x="-182" y="-116" type="line"/>
      <point x="-537" y="-116" type="line"/>
    </contour>
  </outline>
</glyph>
<glyph name="uni1743_i" format="2">
  <advance width="619"/>
  <note>
uni1743_i
</note>
  <outline>
    <contour>
      <point x="201" y="15" type="line"/>
      <point x="278" y="15" type="line"/>
      <point x="334" y="254" type="line"/>
      <point x="512" y="254" type="line"/>
      <point x="528" y="322" type="line"/>
      <point x="350" y="322" type="line"/>
      <point x="397" y="529" type="line"/>
      <point x="320" y="529" type="line"/>
      <point x="272" y="322" type="line"/>
      <point x="86" y="322" type="line"/>
      <point x="70" y="254" type="line"/>
      <point x="256" y="254" type="line"/>
    </contour>
  </outline>
</glyph>
<glyph name="uni1745_i" format="2">
  <advance width="826"/>
  <note>
uni1745_i
</note>
  <outline>
    <contour>
      <point x="55" y="0" type="line"/>
      <point x="409" y="0" type="line"/>
      <point x="466" y="250" type="line"/>
      <point x="739" y="250" type="line"/>
      <point x="754" y="318" type="line"/>
      <point x="482" y="318" type="line"/>
      <point x="540" y="568" type="line"/>
      <point x="186" y="568" type="line"/>
      <point x="170" y="500" type="line"/>
      <point x="442" y="500" type="line"/>
      <point x="343" y="68" type="line"/>
      <point x="71" y="68" type="line"/>
    </contour>
    <contour>
      <point x="551" y="370" type="line"/>
      <point x="764" y="370" type="line"/>
      <point x="780" y="438" type="line"/>
      <point x="567" y="438" type="line"/>
    </contour>
  </outline>
</glyph>
<glyph name="uni1745_u" format="2">
  <advance width="805"/>
  <note>
uni1745_u
</note>
  <outline>
    <contour>
      <point x="55" y="0" type="line"/>
      <point x="409" y="0" type="line"/>
      <point x="466" y="250" type="line"/>
      <point x="739" y="250" type="line"/>
      <point x="754" y="318" type="line"/>
      <point x="482" y="318" type="line"/>
      <point x="540" y="568" type="line"/>
      <point x="186" y="568" type="line"/>
      <point x="170" y="500" type="line"/>
      <point x="442" y="500" type="line"/>
      <point x="343" y="68" type="line"/>
      <point x="71" y="68" type="line"/>
    </contour>
    <contour>
      <point x="494" y="120" type="line"/>
      <point x="707" y="120" type="line"/>
      <point x="723" y="188" type="line"/>
      <point x="510" y="188" type="line"/>
    </contour>
  </outline>
</glyph>
<glyph name="uni1747_i" format="2">
  <advance width="817"/>
  <note>
uni1747_i
</note>
  <outline>
    <contour>
      <point x="143" y="0" type="line"/>
      <point x="497" y="0" type="line"/>
      <point x="813" y="714" type="line"/>
      <point x="503" y="714" type="line"/>
      <point x="486" y="646" type="line"/>
      <point x="698" y="646" type="line"/>
      <point x="444" y="68" type="line"/>
      <point x="237" y="68" type="line"/>
      <point x="387" y="714" type="line"/>
      <point x="88" y="714" type="line"/>
      <point x="71" y="646" type="line"/>
      <point x="291" y="646" type="line"/>
    </contour>
  </outline>
</glyph>
<glyph name="uni1748_u" format="2">
  <advance width="516"/>
  <note>
uni1748_u
</note>
  <outline>
    <contour>
      <point x="299" y="0" type="line"/>
      <point x="377" y="0" type="line"/>
      <point x="452" y="322" type="line"/>
      <point x="258" y="322" type="line"/>
      <point x="333" y="646" type="line"/>
      <point x="480" y="646" type="line"/>
      <point x="496" y="714" type="line"/>
      <point x="103" y="714" type="line"/>
      <point x="87" y="646" type="line"/>
      <point x="254" y="646" type="line"/>
      <point x="164" y="254" type="line"/>
      <point x="357" y="254" type="line"/>
    </contour>
  </outline>
</glyph>
<glyph name="uni1749_u" format="2">
  <advance width="828"/>
  <note>
uni1749_u
</note>
  <outline>
    <contour>
      <point x="159" y="0" type="line"/>
      <point x="493" y="0" type="line"/>
      <point x="570" y="222" type="line"/>
      <point x="771" y="222" type="line"/>
      <point x="787" y="290" type="line"/>
      <point x="594" y="290" type="line"/>
      <point x="656" y="468" type="line"/>
      <point x="858" y="468" type="line"/>
      <point x="874" y="536" type="line"/>
      <point x="597" y="536" type="line"/>
      <point x="436" y="68" type="line"/>
      <point x="253" y="68" type="line"/>
      <point x="362" y="536" type="line"/>
      <point x="85" y="536" type="line"/>
      <point x="69" y="468" type="line"/>
      <point x="267" y="468" type="line"/>
    </contour>
  </outline>
</glyph>
<glyph name="uni174B_i" format="2">
  <advance width="881"/>
  <note>
uni174B_i
</note>
  <outline>
    <contour>
      <point x="50" y="0" type="line"/>
      <point x="484" y="0" type="line"/>
      <point x="709" y="646" type="line"/>
      <point x="909" y="646" type="line"/>
      <point x="925" y="714" type="line"/>
      <point x="650" y="714" type="line"/>
      <point x="587" y="532" type="line"/>
      <point x="251" y="532" type="line"/>
      <point x="260" y="568" type="line"/>
      <point x="181" y="568" type="line"/>
    </contour>
    <contour>
      <point x="144" y="68" type="line"/>
      <point x="236" y="464" type="line"/>
      <point x="563" y="464" type="line"/>
      <point x="427" y="68" type="line"/>
    </contour>
  </outline>
</glyph>
<glyph name="uni174C_u" format="2">
  <advance width="969"/>
  <note>
uni174C_u
</note>
  <outline>
    <contour>
      <point x="119" y="0" type="line"/>
      <point x="409" y="0" type="line"/>
      <point x="572" y="468" type="line"/>
      <point x="700" y="468" type="line"/>
      <point x="592" y="0" type="line"/>
      <point x="865" y="0" type="line"/>
      <point x="881" y="68" type="line"/>
      <point x="687" y="68" type="line"/>
      <point x="795" y="536" type="line"/>
      <point x="513" y="536" type="line"/>
      <point x="352" y="68" type="line"/>
      <point x="213" y="68" type="line"/>
      <point x="322" y="536" type="line"/>
      <point x="85" y="536" type="line"/>
      <point x="69" y="468" type="line"/>
      <point x="227" y="468" type="line"/>
    </contour>
  </outline>
</glyph>
<glyph name="uni174D_i" format="2">
  <advance width="613"/>
  <note>
uni174D_i
</note>
  <outline>
    <contour>
      <point x="193" y="0" type="line"/>
      <point x="271" y="0" type="line"/>
      <point x="330" y="254" type="line"/>
      <point x="530" y="254" type="line"/>
      <point x="546" y="322" type="line"/>
      <point x="345" y="322" type="line"/>
      <point x="387" y="500" type="line"/>
      <point x="562" y="500" type="line"/>
      <point x="578" y="568" type="line"/>
      <point x="325" y="568" type="line"/>
      <point x="268" y="322" type="line"/>
      <point x="75" y="322" type="line"/>
      <point x="59" y="254" type="line"/>
      <point x="252" y="254" type="line"/>
    </contour>
  </outline>
</glyph>
<glyph name="uni174D_u" format="2">
  <advance width="613"/>
  <note>
uni174D_u
</note>
  <outline>
    <contour>
      <point x="193" y="0" type="line"/>
      <point x="460" y="0" type="line"/>
      <point x="477" y="68" type="line"/>
      <point x="286" y="68" type="line"/>
      <point x="330" y="254" type="line"/>
      <point x="530" y="254" type="line"/>
      <point x="546" y="322" type="line"/>
      <point x="345" y="322" type="line"/>
      <point x="402" y="568" type="line"/>
      <point x="325" y="568" type="line"/>
      <point x="268" y="322" type="line"/>
      <point x="75" y="322" type="line"/>
      <point x="59" y="254" type="line"/>
      <point x="252" y="254" type="line"/>
    </contour>
  </outline>
</glyph>
<glyph name="uni174E_i" format="2">
  <advance width="867"/>
  <note>
uni174E_i
</note>
  <outline>
    <contour>
      <point x="195" y="-250" type="line"/>
      <point x="275" y="-250" type="line"/>
      <point x="361" y="0" type="line"/>
      <point x="619" y="0" type="line"/>
      <point x="854" y="576" type="line"/>
      <point x="480" y="576" type="line"/>
      <point x="305" y="68" type="line"/>
      <point x="145" y="68" type="line"/>
      <point x="281" y="648" type="line"/>
      <point x="556" y="648" type="line"/>
      <point x="572" y="716" type="line"/>
      <point x="217" y="716" type="line"/>
      <point x="50" y="0" type="line"/>
      <point x="281" y="0" type="line"/>
    </contour>
    <contour>
      <point x="385" y="68" type="line"/>
      <point x="538" y="508" type="line"/>
      <point x="743" y="508" type="line"/>
      <point x="565" y="68" type="line"/>
    </contour>
  </outline>
</glyph>
<glyph name="uni1750_u" format="2">
  <advance width="758"/>
  <note>
uni1750_u
</note>
  <outline>
    <contour>
      <point x="523" y="-56" type="line"/>
      <point x="604" y="-56" type="line"/>
      <point x="705" y="246" type="line"/>
      <point x="466" y="246" type="line"/>
      <point x="544" y="480" type="line"/>
      <point x="303" y="480" type="line"/>
      <point x="382" y="714" type="line"/>
      <point x="89" y="714" type="line"/>
      <point x="73" y="646" type="line"/>
      <point x="277" y="646" type="line"/>
      <point x="200" y="412" type="line"/>
      <point x="440" y="412" type="line"/>
      <point x="362" y="178" type="line"/>
      <point x="600" y="178" type="line"/>
    </contour>
    <contour>
      <point x="374" y="556" type="line"/>
      <point x="572" y="556" type="line"/>
      <point x="588" y="624" type="line"/>
      <point x="395" y="624" type="line"/>
    </contour>
  </outline>
</glyph>
